<svg id="圖層_1" data-name="圖層 1" xmlns="http://www.w3.org/2000/svg" viewBox="0 0 512 512"><defs><style>.cls-1{fill:#231815;}</style></defs><title>pallium-line</title><path class="cls-1" d="M83.76,508a4,4,0,0,1-4-4V404.6a4,4,0,0,1,6-3.46l86.08,49.7a4,4,0,0,1,0,6.92l-86.08,49.7A4,4,0,0,1,83.76,508Zm4-96.47v85.54l74.08-42.77Z"/><path class="cls-1" d="M83.76,408.6a4,4,0,0,1-4-4V305.2a4,4,0,0,1,6-3.46l86.08,49.7a4,4,0,0,1,0,6.92l-86.08,49.7A4,4,0,0,1,83.76,408.6Zm4-96.47v85.54l74.08-42.77Z"/><path class="cls-1" d="M83.76,309.2a4,4,0,0,1-4-4V205.8a4,4,0,0,1,6-3.46L171.84,252a4,4,0,0,1,0,6.92l-86.08,49.7A4,4,0,0,1,83.76,309.2Zm4-96.47v85.54l74.08-42.77Z"/><path class="cls-1" d="M83.76,209.8a4,4,0,0,1-4-4V106.4a4,4,0,0,1,6-3.46l86.08,49.7a4,4,0,0,1,0,6.92l-86.08,49.7A4,4,0,0,1,83.76,209.8Zm4-96.47v85.54l74.08-42.77Z"/><path class="cls-1" d="M169.84,160.1a4,4,0,0,1-2-.54l-86.08-49.7a4,4,0,0,1,0-6.92l86.08-49.7a4,4,0,0,1,6,3.46v99.4a4,4,0,0,1-4,4ZM91.76,106.4l74.08,42.77V63.63Z"/><path class="cls-1" d="M169.84,259.5a4,4,0,0,1-2-.54l-86.08-49.7a4,4,0,0,1,0-6.92l86.08-49.7a4,4,0,0,1,6,3.46v99.4a4,4,0,0,1-4,4ZM91.76,205.8l74.08,42.77V163Z"/><path class="cls-1" d="M169.84,358.9a4,4,0,0,1-2-.54l-86.08-49.7a4,4,0,0,1,0-6.92L167.84,252a4,4,0,0,1,6,3.46v99.4a4,4,0,0,1-4,4ZM91.76,305.2,165.84,348V262.43Z"/><path class="cls-1" d="M169.84,458.3a4,4,0,0,1-2-.54l-86.08-49.7a4,4,0,0,1,0-6.92l86.08-49.7a4,4,0,0,1,6,3.46v99.4a4,4,0,0,1-4,4ZM91.76,404.6l74.08,42.77V361.83Z"/><path class="cls-1" d="M255.93,408.6a3.93,3.93,0,0,1-2-.54l-86.09-49.7a4,4,0,0,1,0-6.92l86.09-49.7a4,4,0,0,1,6,3.46v99.4a4,4,0,0,1-4,4Zm-78.09-53.7,74.09,42.77V312.13Z"/><path class="cls-1" d="M255.93,110.4a3.93,3.93,0,0,1-2-.54l-86.09-49.7a4,4,0,0,1,0-6.92l86.09-49.7a4,4,0,0,1,6,3.46v99.4a4,4,0,0,1-4,4ZM177.84,56.7l74.09,42.77V13.93Z"/><path class="cls-1" d="M169.84,160.1a4,4,0,0,1-4-4V56.7a4,4,0,0,1,6-3.46l86.09,49.7a4,4,0,0,1,0,6.92l-86.09,49.7A4,4,0,0,1,169.84,160.1Zm4-96.47v85.54l74.09-42.77Z"/><path class="cls-1" d="M169.84,358.9a4,4,0,0,1-4-4V255.5a4,4,0,0,1,6-3.46l86.09,49.7a4,4,0,0,1,0,6.92l-86.09,49.7A4,4,0,0,1,169.84,358.9Zm4-96.47V348l74.09-42.77Z"/><path class="cls-1" d="M255.93,408.6a3.93,3.93,0,0,1-2-.54,4,4,0,0,1-2-3.46V305.2a4,4,0,0,1,6-3.46L344,351.44a4,4,0,0,1,0,6.92l-86.08,49.7A4,4,0,0,1,255.93,408.6Zm4-96.47v85.54L334,354.9Z"/><path class="cls-1" d="M255.93,110.4a3.93,3.93,0,0,1-2-.54,4,4,0,0,1-2-3.46V7a4,4,0,0,1,6-3.46L344,53.24a4,4,0,0,1,0,6.92l-86.08,49.7A4,4,0,0,1,255.93,110.4Zm4-96.47V99.47L334,56.7Z"/><path class="cls-1" d="M342,160.1a4,4,0,0,1-2-.54l-86.08-49.7a4,4,0,0,1,0-6.92L340,53.24a4,4,0,0,1,6,3.46v99.4a4,4,0,0,1-4,4Zm-78.08-53.7L338,149.17V63.63Z"/><path class="cls-1" d="M342,358.9a4,4,0,0,1-2-.54l-86.08-49.7a4,4,0,0,1,0-6.92L340,252a4,4,0,0,1,6,3.46v99.4a4,4,0,0,1-4,4Zm-78.08-53.7L338,348V262.43Z"/><path class="cls-1" d="M428.09,309.2a4,4,0,0,1-2-.54L340,259a4,4,0,0,1,0-6.92l86.08-49.7a4,4,0,0,1,6,3.46v99.4a4,4,0,0,1-4,4ZM350,255.5l74.08,42.77V212.73Z"/><path class="cls-1" d="M428.09,209.8a4,4,0,0,1-2-.54L340,159.56a4,4,0,0,1,0-6.92l86.08-49.7a4,4,0,0,1,6,3.46v99.4a4,4,0,0,1-4,4ZM350,156.1l74.08,42.77V113.33Z"/><path class="cls-1" d="M342,160.1a4,4,0,0,1-4-4V56.7a4,4,0,0,1,6-3.46l86.08,49.7a4,4,0,0,1,0,6.92L344,159.56A4,4,0,0,1,342,160.1Zm4-96.47v85.54l74.08-42.77Z"/><path class="cls-1" d="M342,259.5a4,4,0,0,1-4-4V156.1a4,4,0,0,1,6-3.46l86.08,49.7a4,4,0,0,1,0,6.92L344,259A4,4,0,0,1,342,259.5ZM346,163v85.54l74.08-42.77Z"/><path class="cls-1" d="M342,358.9a4,4,0,0,1-4-4V255.5a4,4,0,0,1,6-3.46l86.08,49.7a4,4,0,0,1,0,6.92L344,358.36A4,4,0,0,1,342,358.9Zm4-96.47V348l74.08-42.77Z"/></svg>